<svg xmlns="http://www.w3.org/2000/svg" xmlns:xlink="http://www.w3.org/1999/xlink" viewBox="0 0 134.1 33.7">
  <defs>
    <linearGradient id="linear-gradient" x1="-520.209" y1="323.272" x2="-520.695" y2="323.776" gradientTransform="matrix(47.4, 0, 0, -33.7, 24771.499, 10921.73)" gradientUnits="userSpaceOnUse">
      <stop offset="0" stop-color="#be0000"/>
      <stop offset="0.39" stop-color="#de0000"/>
      <stop offset="0.768" stop-color="#f60000"/>
      <stop offset="1" stop-color="red"/>
    </linearGradient>
    <linearGradient id="linear-gradient-2" x1="-365.289" y1="246.996" x2="-365.208" y2="248.011" gradientTransform="matrix(3.2, 0, 0, -3.5, 1279.4, 882.85)" gradientUnits="userSpaceOnUse">
      <stop offset="0.65" stop-color="#fff" stop-opacity="0"/>
      <stop offset="0.728" stop-color="#e0e0e0" stop-opacity="0.262"/>
      <stop offset="0.815" stop-color="#c5c5c5" stop-opacity="0.549"/>
      <stop offset="0.891" stop-color="#b5b5b5" stop-opacity="0.805"/>
      <stop offset="0.95" stop-color="#afafaf"/>
    </linearGradient>
    <linearGradient id="linear-gradient-3" x1="-496.292" y1="290.452" x2="-495.289" y2="290.452" gradientTransform="matrix(14.9, 0, 0, -7.08, 7500.601, 2084.211)" gradientUnits="userSpaceOnUse">
      <stop offset="0" stop-color="#fff" stop-opacity="0"/>
      <stop offset="0.084" stop-color="#f1f1f1" stop-opacity="0.093"/>
      <stop offset="0.292" stop-color="#d4d4d4" stop-opacity="0.325"/>
      <stop offset="0.499" stop-color="silver" stop-opacity="0.555"/>
      <stop offset="0.703" stop-color="#b3b3b3" stop-opacity="0.781"/>
      <stop offset="0.9" stop-color="#afafaf"/>
    </linearGradient>
    <linearGradient id="linear-gradient-4" x1="-500.145" y1="319.022" x2="-499.145" y2="319.022" gradientTransform="matrix(16.7, 0, 0, -22.2, 8439.599, 7094.48)" gradientUnits="userSpaceOnUse">
      <stop offset="0.25" stop-color="#fff" stop-opacity="0"/>
      <stop offset="0.462" stop-color="#ededed" stop-opacity="0.282"/>
      <stop offset="0.886" stop-color="#bdbdbd" stop-opacity="0.848"/>
      <stop offset="1" stop-color="#afafaf"/>
    </linearGradient>
  </defs>
  <polygon id="Path" points="1.3 7.2 1.3 12.6 0 12.6 0 0 6.5 0 6.5 1.3 1.3 1.3 1.3 5.8 6.1 5.8 6.1 7.2 1.3 7.2" fill="#323232"/>
  <path id="Shape" d="M16.2,12.6l-2-5H11.6v5H10.3V0h3.5a3.622,3.622,0,0,1,3.8,3.8,3.519,3.519,0,0,1-2.1,3.5l2.1,5.4H16.2ZM11.7,1.3V6.4h2.1a2.416,2.416,0,0,0,2.6-2.6,2.39,2.39,0,0,0-2.6-2.5Z" fill="#323232"/>
  <polygon points="22.9 6.8 22.9 11.3 28.2 11.3 28.2 12.6 21.6 12.6 21.6 0 28.1 0 28.1 1.3 22.9 1.3 22.9 5.5 27.7 5.5 27.7 6.8 22.9 6.8" fill="#323232"/>
  <path d="M39.2,8.8a4.023,4.023,0,0,1-1.8,3.6l1.8,2.8H37.6l-1.5-2.4c-.2,0-.4.1-.6.1-2.2,0-3.7-1.6-3.7-4V4c0-2.5,1.5-4,3.7-4s3.7,1.6,3.7,4Zm-6.1,0a2.45,2.45,0,0,0,2.4,2.7,2.4,2.4,0,0,0,2.4-2.7v-5a2.45,2.45,0,0,0-2.4-2.7,2.4,2.4,0,0,0-2.4,2.7Z" fill="#323232"/>
  <path d="M50.3,0V8.8c0,2.5-1.5,4-3.7,4s-3.7-1.6-3.7-4V0h1.3V8.8c0,1.5.8,2.7,2.3,2.7a2.4,2.4,0,0,0,2.4-2.7V0Z" fill="#323232"/>
  <polygon points="56 6.8 56 11.3 61.3 11.3 61.3 12.6 54.7 12.6 54.7 0 61.2 0 61.2 1.3 56 1.3 56 5.5 60.7 5.5 60.7 6.8 56 6.8" fill="#323232"/>
  <polygon points="72.5 12.6 71.4 12.6 66.5 2.8 66.5 12.6 65.3 12.6 65.3 0 66.4 0 71.3 9.6 71.3 0 72.5 0 72.5 12.6" fill="#323232"/>
  <polygon points="75.9 0 83.2 0 83.2 1.3 80.2 1.3 80.2 12.6 78.9 12.6 78.9 1.3 75.9 1.3 75.9 0" fill="#323232"/>
  <polygon points="36.4 28.2 36.4 33.6 35.1 33.6 35.1 21 41.6 21 41.6 22.3 36.4 22.3 36.4 26.8 41.1 26.8 41.1 28.2 36.4 28.2" fill="#323232"/>
  <polygon points="46.8 32.3 51.7 32.3 51.7 33.6 45.4 33.6 45.4 21 46.8 21 46.8 32.3" fill="#323232"/>
  <polygon points="54.6 21 57.1 27.1 59.7 21 61.1 21 57.8 28.6 57.8 33.6 56.4 33.6 56.4 28.6 53.2 21 54.6 21" fill="#323232"/>
  <polygon points="66 27.8 66 32.3 71.4 32.3 71.4 33.6 64.7 33.6 64.7 21 71.2 21 71.2 22.3 66 22.3 66 26.5 70.8 26.5 70.8 27.8 66 27.8" fill="#323232"/>
  <path d="M81.2,33.6l-2-5H76.6v5H75.3V21h3.5a3.622,3.622,0,0,1,3.8,3.8,3.519,3.519,0,0,1-2.1,3.5l2.1,5.4H81.2ZM76.6,22.3v5.1h2.1a2.416,2.416,0,0,0,2.6-2.6,2.39,2.39,0,0,0-2.6-2.5Z" fill="#323232"/>
  <path d="M99.6,33.7h34.5L106.4,5.9A19.788,19.788,0,0,0,92.5,0H86.7l.4,1.1,1.9,5Z" fill="url(#linear-gradient)"/>
  <path d="M89.1,6.2c3.8,6.5,13.7,7.1,14.8,17.2,0,.4.4.7.8.8a33.78,33.78,0,0,1,16.1,7.1h.2c.1-.1.1-.2,0-.2a35.615,35.615,0,0,0-12-8.2l-1.4-.6a1.975,1.975,0,0,1-1.2-1.8c.1-3,7.2-2.4,7.9-3.8l.1-.2a13.926,13.926,0,0,0-5.1-2.7,1.579,1.579,0,0,0,.3,1.1c.4.7-.5,1.8-1.8.6l-.1-.1C98.1,6.6,90.9,11.2,87.1,1.3Z" fill="#fff"/>
  <path d="M112.2,16.2a2.827,2.827,0,0,1-2.5-1.5.717.717,0,0,1-.7,1.1v2.4c1-.3,2.2-.5,3.2-.7Z" fill="url(#linear-gradient-2)"/>
  <path d="M105.8,24.4a33.839,33.839,0,0,1,14.9,6.9C110.7,22.7,106.2,24.3,105.8,24.4Z" fill="url(#linear-gradient-3)"/>
  <path d="M91.1,6.6h0a10.435,10.435,0,0,1-3.9-5.5l1.9,5c3.8,6.5,13.7,7.1,14.8,17.2C102.8,10.5,97.2,12.4,91.1,6.6Z" fill="url(#linear-gradient-4)"/>
</svg>
