<svg id="Layer_1" data-name="Layer 1" xmlns="http://www.w3.org/2000/svg" viewBox="0 0 134.1 33.705">
  <title>logo-ff-white</title>
  <polygon id="Path" points="1.3 7.205 1.3 12.605 0 12.605 0 0.005 6.5 0.005 6.5 1.305 1.3 1.305 1.3 5.805 6.1 5.805 6.1 7.205 1.3 7.205" fill="#fff"/>
  <path id="Shape" d="M16.2,12.605l-2-5H11.6v5H10.3V.005h3.5a3.622,3.622,0,0,1,3.8,3.434q.009.183,0,.366a3.519,3.519,0,0,1-2.1,3.5l2.1,5.4H16.2Zm-4.5-11.3v5.1h2.1a2.416,2.416,0,0,0,2.6-2.217,2.449,2.449,0,0,0,0-.383A2.39,2.39,0,0,0,14.132,1.3a2.457,2.457,0,0,0-.332.007Z" fill="#fff"/>
  <polygon points="22.9 6.805 22.9 11.305 28.2 11.305 28.2 12.605 21.6 12.605 21.6 0.005 28.1 0.005 28.1 1.305 22.9 1.305 22.9 5.505 27.7 5.505 27.7 6.805 22.9 6.805" fill="#fff"/>
  <path d="M39.2,8.805a4.023,4.023,0,0,1-1.8,3.6l1.8,2.8H37.6l-1.5-2.4c-.2,0-.4.1-.6.1-2.2,0-3.7-1.6-3.7-4v-4.9c0-2.5,1.5-4,3.7-4s3.7,1.6,3.7,4Zm-6.1,0a2.45,2.45,0,0,0,2.187,2.687c.071.007.142.012.213.013a2.4,2.4,0,0,0,2.4-2.7v-5a2.451,2.451,0,0,0-2.187-2.688q-.106-.01-.213-.012a2.4,2.4,0,0,0-2.419,2.381,2.438,2.438,0,0,0,.019.319Z" fill="#fff"/>
  <path d="M50.3.005v8.8c0,2.5-1.5,4-3.7,4s-3.7-1.6-3.7-4V.005h1.3v8.8c0,1.5.8,2.7,2.3,2.7a2.4,2.4,0,0,0,2.4-2.7V.005Z" fill="#fff"/>
  <polygon points="56 6.805 56 11.305 61.3 11.305 61.3 12.605 54.7 12.605 54.7 0.005 61.2 0.005 61.2 1.305 56 1.305 56 5.505 60.7 5.505 60.7 6.805 56 6.805" fill="#fff"/>
  <polygon points="72.5 12.605 71.4 12.605 66.5 2.805 66.5 12.605 65.3 12.605 65.3 0.005 66.4 0.005 71.3 9.605 71.3 0.005 72.5 0.005 72.5 12.605" fill="#fff"/>
  <polygon points="75.9 0.005 83.2 0.005 83.2 1.305 80.2 1.305 80.2 12.605 78.9 12.605 78.9 1.305 75.9 1.305 75.9 0.005" fill="#fff"/>
  <polygon points="36.4 28.205 36.4 33.605 35.1 33.605 35.1 21.005 41.6 21.005 41.6 22.305 36.4 22.305 36.4 26.805 41.1 26.805 41.1 28.205 36.4 28.205" fill="#fff"/>
  <polygon points="46.8 32.305 51.7 32.305 51.7 33.605 45.4 33.605 45.4 21.005 46.8 21.005 46.8 32.305" fill="#fff"/>
  <polygon points="54.6 21.005 57.1 27.105 59.7 21.005 61.1 21.005 57.8 28.605 57.8 33.605 56.4 33.605 56.4 28.605 53.2 21.005 54.6 21.005" fill="#fff"/>
  <polygon points="66 27.805 66 32.305 71.4 32.305 71.4 33.605 64.7 33.605 64.7 21.005 71.2 21.005 71.2 22.305 66 22.305 66 26.505 70.8 26.505 70.8 27.805 66 27.805" fill="#fff"/>
  <path d="M81.2,33.6l-2-5H76.6v5H75.3v-12.6h3.5a3.622,3.622,0,0,1,3.8,3.434q.009.183,0,.366a3.519,3.519,0,0,1-2.1,3.5l2.1,5.4H81.2Zm-4.6-11.3v5.1h2.1a2.416,2.416,0,0,0,2.6-2.217,2.449,2.449,0,0,0,0-.383A2.39,2.39,0,0,0,79.032,22.3a2.457,2.457,0,0,0-.332.007Z" fill="#fff"/>
  <path d="M106.4,5.905A19.786,19.786,0,0,0,92.5.005H86.7l.4,1.1.593,1.56c3.93,8.107,10.883,4.376,20.007,12.74l.1.1c1.3,1.2,2.2.1,1.8-.6a1.585,1.585,0,0,1-.3-1.1,13.914,13.914,0,0,1,5.1,2.7l-.1.2c-.7,1.4-7.8.8-7.9,3.8a1.976,1.976,0,0,0,1.2,1.8l1.4.6a35.614,35.614,0,0,1,12,8.2c.1,0,.1.1,0,.2h-.2a33.774,33.774,0,0,0-16.1-7.1c-.4-.1-.8-.4-.8-.8-1.1-10.1-11-10.7-14.8-17.2L88.2,4l.8,2.1,10.6,27.6h34.5Z" fill="#fff"/>
</svg>
